<svg width="20" height="36" viewBox="0 0 20 36" fill="none" xmlns="http://www.w3.org/2000/svg" xmlns:xlink="http://www.w3.org/1999/xlink">
<path d="M19,5L13,5C11.895,5 11,5.895 11,7L11,13L19,13C19.227,12.995 19.443,13.101 19.578,13.284C19.714,13.467 19.752,13.704 19.68,13.92L18.2,18.32C18.064,18.724 17.686,18.997 17.26,19L11,19L11,34C11,34.552 10.552,35 10,35L5,35C4.448,35 4,34.552 4,34L4,19L1,19C0.448,19 0,18.552 0,18L0,14C0,13.448 0.448,13 1,13L4,13L4,7C4,2.582 7.582,-1 12,-1L19,-1C19.552,-1 20,-0.552 20,0L20,4C20,4.552 19.552,5 19,5Z" fill="#C92D1F"/>
</svg>
