<svg width="36" height="36" viewBox="0 0 36 36" fill="none" xmlns="http://www.w3.org/2000/svg" xmlns:xlink="http://www.w3.org/1999/xlink">
<path d="M26,-1L10,-1C4.477,-1 0,3.477 0,9L0,25C0,30.523 4.477,35 10,35L26,35C31.523,35 36,30.523 36,25L36,9C36,3.477 31.523,-1 26,-1ZM32.5,25C32.489,28.585 29.585,31.489 26,31.5L10,31.5C6.415,31.489 3.511,28.585 3.5,25L3.5,9C3.511,5.415 6.415,2.511 10,2.5L26,2.5C29.585,2.511 32.489,5.415 32.5,9L32.5,25ZM27.5,9.5C28.605,9.5 29.5,8.605 29.5,7.5C29.5,6.395 28.605,5.5 27.5,5.5C26.395,5.5 25.5,6.395 25.5,7.5C25.5,8.605 26.395,9.5 27.5,9.5ZM18,8C13.029,8 9,12.029 9,17C9,21.971 13.029,26 18,26C22.971,26 27,21.971 27,17C27.005,14.611 26.059,12.319 24.37,10.63C22.681,8.941 20.389,7.995 18,8ZM12.5,17C12.5,20.038 14.962,22.5 18,22.5C21.038,22.5 23.5,20.038 23.5,17C23.5,13.962 21.038,11.5 18,11.5C14.962,11.5 12.5,13.962 12.5,17Z" clip-rule="evenodd" fill-rule="evenodd" fill="#C92D1F"/>
</svg>
